<svg width="123" height="130" viewBox="0 0 123 130" fill="none" xmlns="http://www.w3.org/2000/svg">
<path d="M3 128L4.62 119.36C5.7 113.84 7.92 108.68 11.28 103.88C14.64 99.08 18.72 94.58 23.52 90.38C28.32 86.06 33.42 81.98 38.82 78.14C44.34 74.3 49.74 70.7 55.02 67.34C60.42 63.86 65.28 60.5 69.6 57.26C74.04 53.9 77.58 50.66 80.22 47.54C82.86 44.3 84.18 41.06 84.18 37.82C84.18 35.06 83.16 32.66 81.12 30.62C79.08 28.46 75.66 27.38 70.86 27.38C67.14 27.38 63.84 28.1 60.96 29.54C58.08 30.98 55.74 33.02 53.94 35.66C52.14 38.18 50.94 41.06 50.34 44.3L49.8 47.9H17.22C17.94 40.34 19.8 33.68 22.8 27.92C25.92 22.16 30 17.36 35.04 13.52C40.2 9.68 46.14 6.8 52.86 4.88001C59.7 2.96 67.14 2 75.18 2C84.18 2 92.04 3.44 98.76 6.32C105.6 9.08 110.88 12.98 114.6 18.02C118.44 22.94 120.36 28.64 120.36 35.12C120.36 39.68 119.64 43.94 118.2 47.9C116.88 51.86 114.96 55.58 112.44 59.06C110.04 62.42 107.16 65.6 103.8 68.6C100.56 71.6 97.02 74.48 93.18 77.24C89.34 80 85.38 82.64 81.3 85.16C77.22 87.68 73.08 90.2 68.88 92.72C67.8 93.32 66.6 94.1 65.28 95.06C64.08 96.02 63.06 96.86 62.22 97.58H111L105.6 128H3Z" stroke="url(#paint0_linear_5728_58)" stroke-width="4"/>
<defs>
<linearGradient id="paint0_linear_5728_58" x1="3" y1="65" x2="120.36" y2="65" gradientUnits="userSpaceOnUse">
<stop stop-color="#6A11CB"/>
<stop offset="1" stop-color="#2575FC"/>
</linearGradient>
</defs>
</svg>
