<svg width="118" height="134" viewBox="0 0 118 134" fill="none" xmlns="http://www.w3.org/2000/svg">
<path d="M50.6 131.08C39.68 131.08 30.62 129.76 23.42 127.12C16.34 124.48 11.06 120.88 7.57999 116.32C4.09999 111.64 2.35999 106.48 2.35999 100.84C2.35999 99.5199 2.41999 98.0799 2.53999 96.5199C2.77999 94.9599 3.13999 93.3399 3.61999 91.6599H35.12C35 92.2599 34.88 92.9199 34.76 93.6399C34.76 94.2399 34.76 94.8399 34.76 95.4399C34.76 99.0399 36.2 101.8 39.08 103.72C42.08 105.52 46.16 106.42 51.32 106.42C55.88 106.42 59.78 105.64 63.02 104.08C66.38 102.4 68.9 100.12 70.58 97.2399C72.38 94.2399 73.28 90.8199 73.28 86.9799C73.28 84.6999 72.8 82.8399 71.84 81.3999C71 79.8399 69.74 78.6999 68.06 77.9799C66.5 77.2599 64.7 76.8999 62.66 76.8999H49.52L53.48 54.7599H63.74C65.9 54.7599 67.88 54.3999 69.68 53.6799C71.6 52.8399 73.22 51.7599 74.54 50.4399C75.98 48.9999 77.06 47.3199 77.78 45.3999C78.5 43.4799 78.86 41.4399 78.86 39.2799C78.86 37.1199 78.32 35.1999 77.24 33.5199C76.28 31.7199 74.78 30.2799 72.74 29.1999C70.7 28.1199 68.06 27.5799 64.82 27.5799C61.46 27.5799 58.52 28.1199 56 29.1999C53.48 30.2799 51.44 31.7199 49.88 33.5199C48.32 35.3199 47.3 37.2999 46.82 39.4599L46.46 41.2599H16.22L16.94 36.7599C17.9 30.5199 20.54 24.8799 24.86 19.8399C29.3 14.6799 35.3 10.5999 42.86 7.59993C50.42 4.47992 59.54 2.91992 70.22 2.91992C79.7 2.91992 87.74 4.23992 94.34 6.87992C101.06 9.39993 106.16 12.8799 109.64 17.3199C113.24 21.7599 115.04 26.8599 115.04 32.6199C115.04 37.5399 113.96 42.1599 111.8 46.4799C109.76 50.7999 106.94 54.4599 103.34 57.4599C99.86 60.4599 96.02 62.6199 91.82 63.9399L91.64 64.6599C96.92 66.6999 101 69.8799 103.88 74.1999C106.88 78.3999 108.38 83.4399 108.38 89.3199C108.38 98.4399 105.8 106.12 100.64 112.36C95.48 118.48 88.52 123.16 79.76 126.4C71 129.52 61.28 131.08 50.6 131.08Z" stroke="url(#paint0_linear_5728_52)" stroke-width="4"/>
<defs>
<linearGradient id="paint0_linear_5728_52" x1="2.35999" y1="66.9999" x2="115.04" y2="66.9999" gradientUnits="userSpaceOnUse">
<stop stop-color="#6A11CB"/>
<stop offset="1" stop-color="#2575FC"/>
</linearGradient>
</defs>
</svg>
