<svg width="25" height="25" viewBox="0 0 25 25" fill="none" xmlns="http://www.w3.org/2000/svg">
<path d="M4.75 22.1001L20.75 22.1001C21.853 22.1001 22.75 21.2031 22.75 20.1001V9.1001C22.75 7.9971 21.853 7.1001 20.75 7.1001H16.75L18.55 4.7001L16.95 3.5001L14.25 7.1001H11.25L8.55 3.5001L6.95 4.7001L8.75 7.1001H4.75C3.647 7.1001 2.75 7.9971 2.75 9.1001V20.1001C2.75 21.2031 3.647 22.1001 4.75 22.1001ZM20.75 9.1001V20.1001L4.75 20.1001L4.749 9.1001L20.75 9.1001Z" fill="white"/>
<path d="M6.75 12.5H10.75V14.5H6.75V12.5Z" fill="white"/>
</svg>
