<svg width="25" height="25" viewBox="0 0 25 25" fill="none" xmlns="http://www.w3.org/2000/svg">
<path d="M12.5 5.09511C11.4104 4.09321 9.98419 3.53716 8.50398 3.53711C7.72052 3.53793 6.94495 3.69367 6.22192 3.99538C5.49888 4.29709 4.84265 4.7388 4.29098 5.29511C1.93798 7.65811 1.93898 11.3541 4.29298 13.7071L11.625 21.0391C11.795 21.3381 12.123 21.5311 12.5 21.5311C12.6548 21.5296 12.8071 21.4918 12.9446 21.4208C13.0822 21.3498 13.2011 21.2475 13.292 21.1221L20.707 13.7071C23.061 11.3531 23.061 7.65811 20.705 5.29111C20.1536 4.73583 19.4979 4.29501 18.7756 3.99399C18.0532 3.69298 17.2785 3.53771 16.496 3.53711C15.0158 3.53735 13.5897 4.09338 12.5 5.09511ZM19.291 6.70511C20.854 8.27611 20.855 10.7301 19.293 12.2931L12.5 19.0861L5.70698 12.2931C4.14498 10.7301 4.14598 8.27611 5.70498 6.70911C6.46498 5.95311 7.45898 5.53711 8.50398 5.53711C9.54898 5.53711 10.539 5.95311 11.293 6.70711L11.793 7.20711C11.8858 7.30006 11.996 7.37379 12.1173 7.4241C12.2386 7.47441 12.3686 7.50031 12.5 7.50031C12.6313 7.50031 12.7614 7.47441 12.8827 7.4241C13.004 7.37379 13.1142 7.30006 13.207 7.20711L13.707 6.70711C15.219 5.19811 17.781 5.20211 19.291 6.70511Z" fill="white"/>
</svg>
