<svg width="25" height="25" viewBox="0 0 25 25" fill="none" xmlns="http://www.w3.org/2000/svg">
<path d="M5.5 22.4998H19.5C20.0304 22.4998 20.5391 22.2891 20.9142 21.914C21.2893 21.539 21.5 21.0303 21.5 20.4998V11.4998C21.5008 11.3682 21.4755 11.2377 21.4258 11.1159C21.376 10.9941 21.3027 10.8833 21.21 10.7898L13.21 2.78982C13.0226 2.60357 12.7692 2.49902 12.505 2.49902C12.2408 2.49902 11.9874 2.60357 11.8 2.78982L3.8 10.7898C3.70551 10.8824 3.63034 10.9929 3.57885 11.1148C3.52735 11.2366 3.50055 11.3675 3.5 11.4998V20.4998C3.5 21.0303 3.71071 21.539 4.08579 21.914C4.46086 22.2891 4.96957 22.4998 5.5 22.4998ZM10.5 20.4998V15.4998H14.5V20.4998H10.5ZM5.5 11.9098L12.5 4.90982L19.5 11.9098V20.4998H16.5V15.4998C16.5 14.9694 16.2893 14.4607 15.9142 14.0856C15.5391 13.7105 15.0304 13.4998 14.5 13.4998H10.5C9.96957 13.4998 9.46086 13.7105 9.08579 14.0856C8.71071 14.4607 8.5 14.9694 8.5 15.4998V20.4998H5.5V11.9098Z" fill="white"/>
</svg>
