<svg width="25" height="25" viewBox="0 0 25 25" fill="none" xmlns="http://www.w3.org/2000/svg">
<path d="M20.25 3.5H4.25C3.147 3.5 2.25 4.397 2.25 5.5V19.5C2.25 20.603 3.147 21.5 4.25 21.5H20.25C21.353 21.5 22.25 20.603 22.25 19.5V5.5C22.25 4.397 21.353 3.5 20.25 3.5ZM20.251 9.5C20.25 9.5 20.25 9.5 20.251 9.5H19.786L17.119 5.5H20.25L20.251 9.5ZM9.786 9.5L7.119 5.5H9.715L12.382 9.5H9.786ZM14.786 9.5L12.119 5.5H14.715L17.382 9.5H14.786ZM4.25 5.5H4.715L7.382 9.5H4.25V5.5ZM4.25 19.5V11.5H20.25L20.252 19.5H4.25Z" fill="white"/>
<path d="M10.25 18.5L15.75 15.5L10.25 12.5V18.5Z" fill="white"/>
</svg>
