<svg width="24" height="25" viewBox="0 0 24 25" fill="none" xmlns="http://www.w3.org/2000/svg">
<path d="M19 3.5H5C3.897 3.5 3 4.397 3 5.5V19.5C3 20.603 3.897 21.5 5 21.5H19C20.103 21.5 21 20.603 21 19.5V5.5C21 4.397 20.103 3.5 19 3.5ZM9 11.5V5.5H15V11.5H9ZM15 13.5V19.5H9V13.5H15ZM5 5.5H7V7.5H5V5.5ZM5 9.5H7V11.5H5V9.5ZM5 13.5H7V15.5H5V13.5ZM5 17.5H7V19.5H5V17.5ZM19.002 19.5H17V17.5H19.002V19.5ZM19.001 15.5H17V13.5H19.001V15.5ZM19.001 11.5H17V9.5H19.001V11.5ZM17 7.5V5.5H19V7.5H17Z" fill="white"/>
</svg>
